# xmcd CD database file
#
# Track frame offsets:
#	150
#	10433
#	21428
#	34147
#	46118
#	54489
#	66528
#	77371
#	88592
#	99881
#
# Disc length: 1525 seconds
#
# Revision: 0
# Processed by: cddbd v1.5.1PL0 Copyright (c) Steve Scherf et al.
# Submitted via: CDex 1.51
#
DISCID=7505f30a
DTITLE=Ramón Ayala and sus Bravos del Norte and Los Mas Grandes Grupos del Norte - Fiesta Norteña Serie de Oro CD 2/3
DYEAR=2004
DGENRE=Ranchero
TTITLE0=Ramón Ayala and sus Bravos del Norte - Ni Por Mil Puñados de Oro
TTITLE1=Los Alegres de Terán - Anillo Grabado
TTITLE2=Los Humildes - Echame A Mí La Culpa
TTITLE3=Lorenzo de Monteclaro - Polvo and Olvido
TTITLE4=Ramón Ayala and sus Bravos del Norte - Que Te Vaya Bien
TTITLE5=Los Cadetes de Linares - Regalo de Reyes
TTITLE6=Los Gorriones del Topo Chico - De Rancho en Rancho
TTITLE7=Los Montañeses del Alamo - Prisionero de Tus Brazos
TTITLE8=Los Montañeses del Alamo - La Tumba de Villa
TTITLE9=Ramón Ayala and sus Bravos del Norte - Otra Vez
EXTD=YEAR: 2004
EXTT0=
EXTT1=
EXTT2=
EXTT3=
EXTT4=
EXTT5=
EXTT6=
EXTT7=
EXTT8=
EXTT9=
PLAYORDER=
